<svg xmlns="http://www.w3.org/2000/svg" xmlns:xlink="http://www.w3.org/1999/xlink" viewBox="0 0 60.45 80.61"><defs><style>.cls-1{stroke-miterlimit:10;fill:url(#linear-gradient);stroke:url(#linear-gradient-2);}</style><linearGradient id="linear-gradient" x1="30.22" y1="-2.65" x2="30.22" y2="83.68" gradientUnits="userSpaceOnUse"><stop offset="0" stop-color="gray"/><stop offset="0.08" stop-color="#949494"/><stop offset="0.17" stop-color="#a8a8a8"/><stop offset="0.45" stop-color="#fff"/><stop offset="0.57" stop-color="#fff"/><stop offset="0.65" stop-color="#ddd"/><stop offset="0.78" stop-color="#969696"/><stop offset="1" stop-color="gray"/></linearGradient><linearGradient id="linear-gradient-2" y1="40.3" x2="60.45" y2="40.3" gradientUnits="userSpaceOnUse"><stop offset="0" stop-color="#fff"/><stop offset="1"/></linearGradient></defs><g id="Layer_2" data-name="Layer 2"><g id="Objects"><path class="cls-1" d="M31.35,80.11C14.05,80.11.5,68.67.5,54.07c0-13.85,4.06-20,12.49-31.46L31.56.5H50.41L28.64,25.85l1.89,2.28a11.45,11.45,0,0,1,5-1C45.41,27.15,60,35.71,60,54.07,60,72.06,45.59,80.11,31.35,80.11ZM30.47,40A13.8,13.8,0,0,0,16.68,54.07a13.35,13.35,0,0,0,13.79,13.8,13.59,13.59,0,0,0,14-13.8A13.74,13.74,0,0,0,30.47,40Z"/></g></g></svg>