<svg xmlns="http://www.w3.org/2000/svg" xmlns:xlink="http://www.w3.org/1999/xlink" width="2868" height="1105" viewBox="0 0 2868 1105">
  <defs>
    <linearGradient id="linear-gradient" x1="0.5" x2="0.5" y2="1" gradientUnits="objectBoundingBox">
      <stop offset="0" stop-color="gray"/>
      <stop offset="0.138" stop-color="#9c9c9c"/>
      <stop offset="0.402" stop-color="#fff"/>
      <stop offset="0.531" stop-color="#e9e9e9"/>
      <stop offset="0.699" stop-color="#9c9c9c"/>
      <stop offset="1" stop-color="gray"/>
    </linearGradient>
  </defs>
  <g id="Group_14" data-name="Group 14" transform="translate(-777 2063)">
    <path id="Subtraction_3" data-name="Subtraction 3" d="M557.5,1105c-19.016,0-38.194-.96-57-2.852-18.534-1.865-37.158-4.682-55.355-8.372-17.96-3.642-35.936-8.223-53.428-13.615-17.295-5.331-34.528-11.582-51.221-18.579-16.539-6.933-32.935-14.76-48.734-23.266-15.687-8.445-31.152-17.756-45.966-27.675-14.742-9.87-29.182-20.571-42.918-31.806-13.7-11.207-27.022-23.2-39.59-35.659s-24.674-25.656-35.982-39.235c-11.336-13.613-22.134-27.923-32.094-42.533C85.2,846.727,75.809,831.4,67.287,815.855c-8.582-15.657-16.481-31.906-23.476-48.3-7.06-16.543-13.368-33.622-18.747-50.761A545.491,545.491,0,0,1,2.878,608.99a555.763,555.763,0,0,1,0-112.98A545.494,545.494,0,0,1,25.064,388.2c5.379-17.139,11.686-34.218,18.747-50.761,7-16.39,14.894-32.639,23.476-48.3C75.809,273.6,85.2,258.273,95.212,243.592c9.96-14.61,20.757-28.92,32.094-42.533,11.308-13.579,23.414-26.78,35.982-39.235s25.888-24.453,39.59-35.66c13.736-11.234,28.176-21.935,42.918-31.806,14.814-9.918,30.279-19.229,45.966-27.675,15.8-8.505,32.2-16.333,48.734-23.266,16.693-7,33.926-13.248,51.221-18.579,17.492-5.392,35.468-9.972,53.428-13.614,18.2-3.69,36.821-6.507,55.355-8.372C519.305.96,538.483,0,557.5,0s38.195.96,57,2.853c18.533,1.865,37.157,4.682,55.355,8.372,17.96,3.642,35.936,8.223,53.428,13.614,17.295,5.331,34.528,11.582,51.221,18.579,16.539,6.933,32.935,14.76,48.734,23.266C838.925,75.129,854.39,84.44,869.2,94.358c14.742,9.87,29.182,20.571,42.918,31.806,13.7,11.207,27.022,23.2,39.59,35.66s24.674,25.656,35.982,39.235c11.336,13.613,22.134,27.923,32.094,42.533,10.008,14.681,19.4,30.007,27.925,45.554,8.582,15.657,16.481,31.906,23.476,48.3,7.061,16.543,13.368,33.622,18.747,50.761a545.488,545.488,0,0,1,22.186,107.807,555.78,555.78,0,0,1,0,112.98A545.484,545.484,0,0,1,1089.936,716.8c-5.379,17.14-11.686,34.218-18.747,50.761-7,16.39-14.894,32.639-23.476,48.3-8.522,15.546-17.917,30.873-27.925,45.554-9.96,14.61-20.757,28.92-32.094,42.533-11.308,13.579-23.414,26.78-35.982,39.235s-25.888,24.453-39.59,35.659c-13.736,11.234-28.176,21.935-42.918,31.806-14.814,9.918-30.279,19.229-45.966,27.675-15.8,8.505-32.2,16.333-48.734,23.266-16.693,7-33.926,13.248-51.221,18.579-17.492,5.392-35.468,9.972-53.428,13.615-18.2,3.69-36.821,6.507-55.355,8.372C595.694,1104.041,576.517,1105,557.5,1105Zm.508-855.972c-169.13,0-306.727,136.363-306.727,303.976S388.878,856.98,558.008,856.98,864.735,720.617,864.735,553,727.138,249.028,558.008,249.028Z" transform="translate(777 -2063)" fill="url(#linear-gradient)"/>
    <path id="Union_2" data-name="Union 2" d="M370.84,1070.852a417.287,417.287,0,0,1-41.3-6.3c-13.4-2.743-26.815-6.191-39.867-10.25-12.9-4.013-25.761-8.72-38.22-13.99A417.206,417.206,0,0,1,30.065,818.926c-5.269-12.458-9.976-25.317-13.99-38.22-4.059-13.054-7.508-26.467-10.25-39.867C3.35,728.737,1.39,716.343,0,704H.374V0h211V706.7A208.867,208.867,0,0,0,343.145,852.8a207.443,207.443,0,0,0,200.493-33.75A209.252,209.252,0,0,0,615.374,706.7V0h211V704h.373c-1.39,12.346-3.35,24.739-5.826,36.838-2.742,13.4-6.191,26.816-10.25,39.867-4.016,12.91-8.722,25.769-13.99,38.22A417.21,417.21,0,0,1,575.3,1040.308c-12.462,5.271-25.321,9.977-38.22,13.99-13.053,4.059-26.465,7.508-39.866,10.25a417.327,417.327,0,0,1-41.3,6.3,422.3,422.3,0,0,1-85.068,0Z" transform="translate(2001.626 -2031)" fill="url(#linear-gradient)"/>
    <path id="Union_3" data-name="Union 3" d="M248,1073V211H0V0H707V211H459v862Z" transform="translate(2938 -2031)" fill="url(#linear-gradient)"/>
  </g>
</svg>
